<svg width="200" height="200" viewBox="0 0 200 200" fill="none" xmlns="http://www.w3.org/2000/svg">
<path fill-rule="evenodd" clip-rule="evenodd" d="M10.8175 1.11611C12.106 1.75639 28.888 11.1467 48.1102 21.9829C67.3324 32.8197 83.0873 41.6626 83.1213 41.6342C83.1553 41.6062 81.6902 34.1287 79.8653 25.0179C76.1635 6.53424 76.1416 6.22335 78.3728 3.61675C80.6761 0.926175 84.5518 0.454337 87.5063 2.50463C90.6658 4.69738 185.762 100.456 188.167 103.866C196.559 115.765 200 126.27 200 139.986C200 189.121 145.329 217.003 104.633 188.623C101.281 186.285 21.0166 106.969 17.2448 102.266C14.7467 99.1518 14.8276 95.3911 17.4493 92.77C19.739 90.4798 20.6307 90.4528 36.1636 92.1952C43.7007 93.0409 50.1831 93.6847 50.5689 93.6257C51.1263 93.5403 47.4065 87.139 32.4679 62.474C22.1263 45.3999 10.5905 26.3359 6.83225 20.1106L4.57469e-07 8.79097L0.155452 6.34981C0.508836 0.800219 5.37374 -1.58796 10.8175 1.11611ZM132.539 100.971C100.816 107.501 89.4352 146.272 112.688 168.595C137.22 192.146 178.228 175.572 179.605 141.548C180.635 116.083 157.216 95.8915 132.539 100.971Z" fill="black"/>
</svg>
